<?xml version="1.0" encoding="utf-8"?>
<!-- Generator: Adobe Illustrator 18.1.1, SVG Export Plug-In . SVG Version: 6.00 Build 0)  -->
<svg version="1.1" id="Layer_1" xmlns="http://www.w3.org/2000/svg" xmlns:xlink="http://www.w3.org/1999/xlink" x="0px" y="0px"
	 viewBox="0 0 183.9 34.9" enable-background="new 0 0 183.9 34.9" xml:space="preserve">
<g>
	<path fill-rule="evenodd" clip-rule="evenodd" fill="#242956" d="M17.7,34.9c-4.9,0-9.1-3.4-9.9-8.3c-0.6-3.5,0.7-6.9,3.4-9.2
		c0-1,0.7-1.9,1.8-2.1l6.1-1c0.1,0,0.2,0,0.3,0c0.9,0,1.7,0.6,2,1.5c3.3,1.3,5.6,4.2,6.2,7.7c0.4,2.6-0.2,5.3-1.8,7.5
		c-1.6,2.2-3.9,3.5-6.5,3.9C18.7,35,18.2,34.9,17.7,34.9L17.7,34.9z"/>
	<g>
		<radialGradient id="SVGID_1_" cx="21.0568" cy="20.9501" r="9.3353" gradientUnits="userSpaceOnUse">
			<stop  offset="0" style="stop-color:#FFFFFF"/>
			<stop  offset="0.5468" style="stop-color:#91CCFD"/>
			<stop  offset="1" style="stop-color:#FDAEFD"/>
		</radialGradient>
		<path fill="url(#SVGID_1_)" d="M22.7,21.2c-2.3,0.2-2.8,2.4-5.2,2.8c-0.9,0.2-1-0.1-3.1-0.4c-3.1-0.5-4.5-0.1-5.4-0.2
			c-0.2,1-0.2,2.1-0.1,3.1c0.7,4.3,4.4,7.4,8.8,7.4h0c0.5,0,1,0,1.4-0.1c2.3-0.4,4.4-1.6,5.8-3.6c1.4-1.9,1.9-4.3,1.6-6.6
			c-0.1-0.7-0.3-1.4-0.6-2c0,0-0.1,0-0.1,0C24.4,21.9,24.2,21.1,22.7,21.2z"/>
		<path fill="#F0F0F0" d="M20.9,16.8c-0.3-0.1-0.5-0.3-0.6-0.6c-0.1-0.4-0.5-0.7-1-0.7c-0.1,0-0.1,0-0.2,0l-6.1,1
			c-0.5,0.1-0.9,0.5-0.8,1c0,0.3-0.1,0.6-0.3,0.8c-1.6,1.3-2.6,3.1-3,5.1c1,0.1,2.3-0.3,5.4,0.2c2.1,0.3,2.2,0.6,3.1,0.4
			c2.5-0.4,2.9-2.6,5.2-2.8c1.4-0.1,1.6,0.7,3,0.5c0,0,0.1,0,0.1,0C25,19.5,23.2,17.7,20.9,16.8z"/>
	</g>
	<path fill="#FDF061" d="M61.2,7.6c0-0.5-0.3-1-0.9-0.9l-16,1.5l-0.4,3.4c-0.3,3.2-1.1,13-1.4,15.9c-0.2,1.9,1.7,2.3,1.9,0.1
		c0.4-3.8,1.4-15.5,1.7-17.5l14.1-1.5C60.8,8.7,61.1,8.2,61.2,7.6L61.2,7.6z"/>
	<path fill-rule="evenodd" clip-rule="evenodd" fill="#242956" d="M60.3,5.7L43.6,7.3l-0.5,4.2c-0.3,2.7-0.5,5.3-0.8,7.9
		c-0.1,1.6-0.2,3.1-0.4,4.7c0,1.1-0.1,2.3-0.3,3.3c-0.1,1.1,0.4,2.5,1.7,2.6c1,0.1,1.6-0.5,1.9-1.4c0.1-0.3,0.1-0.6,0.2-0.9
		c0.2-2.8,0.4-5.6,0.8-8.4c0.2-1.9,0.3-3.8,0.5-5.7c0.1-0.9,0.2-1.8,0.3-2.8l13.3-1.3c1-0.1,1.6-1,1.7-1.9
		C62.2,6.5,61.5,5.6,60.3,5.7z M60.3,8.6l-14.1,1.5c-0.3,2-1.3,13.8-1.7,17.5c-0.2,2.2-2.2,1.8-1.9-0.1c0.3-2.9,1.1-12.7,1.4-15.9
		l0.4-3.4l16-1.5c0.5-0.1,0.9,0.3,0.9,0.9C61.1,8.1,60.8,8.6,60.3,8.6z"/>
	<path fill-rule="evenodd" clip-rule="evenodd" fill="#242956" d="M50.6,24.1c0.1,0.2,0.1,0.5,0.2,0.8l0,0V25
		c0.1,0.3,0.3,0.6,0.8,0.8c2.4,0.5,3.8-1.5,4.6-3.3c0.4-1,1.4-1.3,2.3-1.1c1.3,0.3,1.4,1.8,1,2.8c-1.3,3.2-3.9,6-7.5,6
		c-0.4,0-1-0.1-1.4-0.2c-1.7-0.3-2.8-1.6-3.3-3.2c-0.5-1.6-0.4-3.6-0.2-5.3c0.2-1.4,0.5-2.9,1.2-4.1c0.6-1.5,1.8-3.1,3.4-3.8
		c1-0.3,2-0.4,2.9,0.2l0,0c0.9,0.6,1.4,1.6,1.4,2.7c0.2,1.5-0.3,3-1.2,4.3c-0.8,1.3-2,2.3-3.3,3C51.1,23.9,50.9,24,50.6,24.1
		L50.6,24.1z"/>
	<path fill="#FDF061" d="M51.9,29.2c2.9,0.1,5.4-2,6.8-5.4c0.2-0.6,0.2-1.5-0.4-1.6c-0.4-0.1-1,0.1-1.2,0.5
		c-1.4,3.1-3.4,4.4-5.7,3.9c-0.6-0.1-1.2-0.5-1.4-1.4c-0.2-0.4-0.2-1.1-0.2-1.6c0.2-0.2,0.6-0.3,1.2-0.6c1.3-0.6,2.4-1.6,3-2.7
		c0.8-1.3,1.2-2.6,1.1-3.7c-0.1-0.9-0.4-1.6-1.1-2c-0.5-0.4-1.3-0.4-2-0.1c-1.1,0.4-2.3,1.7-2.9,3.2c-0.5,1-0.9,2.5-1.2,3.9
		c-0.1,1.3-0.3,3.3,0.2,4.8c0.4,1.5,1.4,2.4,2.7,2.7C51.1,29.2,51.5,29.2,51.9,29.2L51.9,29.2z M52.5,16.7c0.1,0,0.1,0,0.2,0
		c0.1,0.2,0.2,0.3,0.2,0.5c0.1,0.4-0.1,1.1-0.5,1.7c-0.5,0.9-1.6,1.6-2.5,1.9c0.2-1,0.5-1.7,0.8-2.3c0.4-1.1,1.2-1.7,1.6-1.8
		C52.3,16.7,52.4,16.7,52.5,16.7L52.5,16.7z"/>
	<path fill-rule="evenodd" clip-rule="evenodd" fill="#242956" d="M60.3,25.9c0.1-0.2,0.3-0.4,0.4-0.5c0.6-1.1,1.2-2.3,1.7-3.3
		c0.2-0.4,0.3-1,0.5-1.4c0.8-1.8,1.3-3.7,1.9-5.5c0.3-1.1,1-1.6,2.2-1.5c1.2,0,1.7,0.9,1.6,2c-0.2,1.8-0.3,3.7-0.3,5.6
		c0,1.2,0,2.4,0.2,3.4c0.1,0.3,0.2,1,0.4,1.3c0.1,0,0.1,0,0.2,0c0.4,0,1.4-1.4,1.7-1.7c0.5-0.8,1.1-1.6,1.5-2.5
		c0.6-1.1,1.8-1.4,2.8-0.5l0,0c0.9,0.6,1,1.9,0.3,2.8c-0.4,0.9-1,1.6-1.4,2.4c-0.4,0.4-0.8,1-1.2,1.5c-1.1,1.3-2.5,2.3-4.1,2.4
		c-1.1,0-2.2-0.4-2.8-1.3c-0.8-0.8-1.1-1.9-1.3-3v-0.1c-0.4,0.5-0.8,1.2-1.2,1.8c-0.9,1.3-2.2,2.5-3.8,2.6c-0.3,0-0.5-0.1-0.9-0.1
		c-1.3-0.4-2-1.6-2.5-2.8c-0.4-1.4-0.5-3-0.4-4.5c0.1-1.1,0.9-1.9,1.9-1.9c1.3-0.1,1.9,0.8,1.8,1.9c-0.1,0.8,0,2,0.3,2.8l0,0
		C60.2,25.6,60.2,25.8,60.3,25.9L60.3,25.9z"/>
	<path fill="#FDF061" d="M68.8,29.4c1.6-0.1,2.8-1.3,3.4-2c0.9-1.1,2.2-3,2.6-3.8c0.4-0.6,0.3-1.4-0.1-1.7c-0.4-0.3-1.1-0.3-1.4,0.3
		c-0.5,1-2.7,4.7-4.1,4.7c-0.6-0.1-1.2-0.3-1.5-2c-0.4-1.8-0.4-4.8,0-9.4c0.1-0.6-0.1-1.1-0.8-1.1c-0.5-0.1-1,0.1-1.2,1
		c-0.3,1-1.3,4.2-2.5,6.9c-1.5,3.3-2.4,4.5-3.1,4.5c-0.3,0-0.6-0.3-0.9-0.9c-0.3-0.8-0.4-2-0.3-3.2c0-0.6-0.3-1-0.9-1
		s-1.1,0.4-1.1,1.1c-0.3,3.6,0.9,6.6,2.8,6.5c1,0,2-0.6,3-2.2c1.5-2.3,2.3-4.2,2.6-4.8c0,1.4,0.1,2.6,0.2,3.6c0.3,1.2,0.6,2,1.2,2.6
		C67.3,29.1,68,29.4,68.8,29.4L68.8,29.4z"/>
	<path fill-rule="evenodd" clip-rule="evenodd" fill="#242956" d="M76.8,17.8c0.4-0.1,0.8-0.2,1.2-0.2l0,0c2.5,0.1,3.9,2.2,4.1,4.4
		c0.6-0.1,1.4-0.3,1.9-0.8c1-0.6,2-0.5,2.6,0.5c0.5,1,0.1,2.3-0.6,2.9c-1.2,1.1-2.8,1.7-4.4,1.9c-0.3,0.8-0.8,1.5-1.4,2.2
		c-1,1.1-2.4,1.7-3.8,1.6c-1.5,0-2.7-0.5-3.4-1.8c-0.9-1.3-1-2.9-0.8-4.3l0,0c0.3-3,0.8-6,1.1-9c0.2-1.1,1-1.8,2-1.8
		c1.2,0,1.9,0.9,1.8,2L76.8,17.8z M77.6,25.8c0.4-0.4,0.5-1.4,0.6-1.9c0-0.5,0-1.8-0.6-1.9c-0.3,0-0.6,0.2-0.9,0.4
		c-0.6,0.6-0.8,1.3-0.9,2c0,0.6-0.1,1.7,0.6,1.7C76.9,26.1,77.3,26.1,77.6,25.8L77.6,25.8z"/>
	<path fill="#FDED40" d="M73.6,28c0.5,1,1.3,1.5,2.7,1.5c1.2,0,2.3-0.4,3.1-1.4c0.5-0.5,0.9-1.2,1.2-1.9l0.1-0.5
		c1.8,0,3.6-0.6,4.5-1.6c0.5-0.4,0.8-1.3,0.5-1.8c-0.3-0.5-0.8-0.6-1.3-0.2c-1.1,0.8-2.5,1-3.3,1c0-2.6-1.3-4.3-3.2-4.4
		c-0.9,0-1.6,0.2-2.3,0.8l0.5-4c0-0.6-0.3-1.1-1-1.1c-0.5,0-1,0.4-1.1,1.1c0,0-1,7-1.2,9C72.9,25.9,73,27.2,73.6,28L73.6,28z
		 M75,24.2c0.1-1.3,0.4-1.9,1-2.6c0.4-0.4,1-0.6,1.6-0.6c1.1,0,1.7,1.2,1.5,2.9c-0.1,0.8-0.3,1.8-0.9,2.5c-0.4,0.4-1,0.6-1.7,0.6
		C75.4,27,74.8,26,75,24.2L75,24.2z"/>
	<path fill-rule="evenodd" clip-rule="evenodd" fill="#242956" d="M87.3,25.9c0.1-0.2,0.3-0.4,0.4-0.5c0.6-1.1,1.2-2.3,1.7-3.3
		c0.2-0.4,0.3-1,0.5-1.4c0.8-1.8,1.3-3.7,1.9-5.5c0.3-1.1,1-1.6,2.2-1.5c1.2,0,1.7,0.9,1.6,2c-0.2,1.8-0.3,3.7-0.3,5.6
		c0,1.2,0,2.4,0.2,3.4c0.1,0.3,0.2,1,0.4,1.3c0.1,0,0.1,0,0.2,0c0.4,0,1.4-1.4,1.7-1.7c0.5-0.8,1.1-1.6,1.5-2.5
		c0.6-1.1,1.8-1.4,2.8-0.5l0,0c0.9,0.6,0.9,1.9,0.3,2.8c-0.4,0.9-1,1.6-1.5,2.4c-0.3,0.4-0.6,1-1.1,1.5c-1.1,1.3-2.5,2.3-4.2,2.4
		c-1,0-2-0.4-2.7-1.3c-0.8-0.8-1.1-1.9-1.3-3v-0.1c-0.4,0.5-0.8,1.2-1.2,1.8c-0.9,1.3-2.2,2.5-3.8,2.6c-0.3,0-0.6-0.1-0.9-0.1
		c-1.3-0.4-2-1.6-2.5-2.8c-0.4-1.4-0.5-3-0.4-4.5c0.1-1.1,0.9-1.9,1.9-1.9c1.3-0.1,1.9,0.8,1.8,1.9c-0.1,0.8,0,2,0.3,2.8l0,0
		C87.2,25.6,87.2,25.8,87.3,25.9L87.3,25.9z"/>
	<path fill="#FFFFFF" d="M95.8,29.4c1.6-0.1,2.8-1.3,3.4-2c0.9-1.1,2.2-3,2.6-3.8c0.4-0.6,0.3-1.4-0.1-1.7c-0.4-0.3-1.1-0.3-1.4,0.3
		c-0.6,1-2.7,4.7-4.1,4.7c-0.6-0.1-1.2-0.3-1.5-2c-0.4-1.8-0.4-4.8,0-9.4c0.1-0.6-0.1-1.1-0.8-1.1c-0.5-0.1-1,0.1-1.2,1
		c-0.3,1-1.3,4.2-2.5,6.9c-1.5,3.3-2.4,4.5-3.1,4.5c-0.3,0-0.6-0.3-0.9-0.9c-0.3-0.8-0.4-2-0.3-3.2c0-0.6-0.3-1-0.9-1
		s-1.1,0.4-1.1,1.1c-0.3,3.6,0.9,6.6,2.8,6.5c1,0,2-0.6,3-2.2c1.5-2.3,2.3-4.2,2.6-4.8c0,1.4,0.1,2.6,0.2,3.6c0.2,1.2,0.6,2,1.2,2.6
		C94.3,29.1,95.1,29.4,95.8,29.4L95.8,29.4z"/>
	<path fill-rule="evenodd" clip-rule="evenodd" fill="#242956" d="M106.5,29c-0.9,0.8-1.9,1.2-3.2,1.2c0,0,0,0-0.1,0
		c-1.3,0-2.4-0.6-3.1-1.7c-1.2-1.9-0.9-5-0.5-7.1c0.3-1.7,0.9-3.7,1.8-5.2c1.1-1.5,2.5-2.6,4.4-2.6c0.2,0,0.3,0.1,0.5,0.1
		c1.6,0.1,2.7,1.1,3.2,2.6c0.3,1.1,0.3,2.2,0.2,3.2v0.1l0,0c-0.1,0.8-0.2,1.4-0.3,2.2c-0.1,0.9-0.2,1.7-0.2,2.6v0.1
		c0,0.2,0.1,1.2,0.2,1.4h0.1c0.2,0,0.5-0.3,0.6-0.4c1-1,1.6-2.3,2.4-3.3c0.6-0.9,1.8-1.4,2.8-0.6l0.4,0.3l-0.1,0.1
		c0.5,0.8,0.3,1.8-0.1,2.5c-0.9,1.5-1.7,3-3,4.2c-0.9,1-2,1.7-3.3,1.7c-0.6,0-1.3-0.2-1.8-0.5C107,29.5,106.7,29.3,106.5,29
		L106.5,29z M105.8,19.8c0-0.4,0.1-1.4,0-1.8l0,0c-0.1-0.1-0.3-0.1-0.4-0.1c-0.4,0-0.5,0.1-0.9,0.3c-0.6,0.8-1.1,2.6-1.3,3.6
		c-0.1,1-0.4,3.2,0.1,4.1c0,0,0.1,0,0.2,0l0,0c0.1,0,0.3,0,0.4,0c0.2,0,0.4-0.4,0.5-0.6c0.5-1.1,0.9-2.5,1.1-3.7
		C105.7,21,105.7,20.4,105.8,19.8L105.8,19.8z"/>
	<path fill="#FFFFFF" d="M114.8,22.2c-0.4-0.4-1.2-0.1-1.5,0.4c-0.8,1.1-1.5,2.5-2.5,3.4s-1.5,0.8-1.8,0.5c-0.5-0.2-0.6-1.4-0.6-2.3
		s0.1-1.8,0.2-2.7c0.1-0.8,0.2-1.7,0.2-2.2c0.1-1.3,0.1-2.2-0.1-2.9c-0.4-1.2-1.2-1.9-2.5-2c-0.1,0-0.3,0-0.4,0
		c-1.5,0-2.7,0.8-3.7,2.2c-0.8,1.2-1.3,2.7-1.7,4.8c-0.4,2.9-0.3,5.1,0.5,6.4c0.4,0.9,1.3,1.4,2.3,1.4c0.1,0,0.1,0,0.1,0
		c1.4,0,2.6-0.6,3.4-1.9c0.2,0.8,0.5,1.3,1.1,1.5c0.4,0.2,0.9,0.4,1.4,0.4c0.8,0,1.7-0.3,2.7-1.4c1.3-1.3,2.2-2.7,2.9-4
		C115.1,23.3,115.1,22.5,114.8,22.2L114.8,22.2z M103.6,26.8L103.6,26.8c-0.5,0-0.9-0.2-1.1-0.5c-0.4-0.8-0.4-2.4-0.1-4.6
		c0.8-4.6,2.4-4.6,3-4.6c0.9,0,1.1,0.3,1.3,0.6c0.1,0.4,0.1,1.2,0,2.2c0,0.4-0.1,1.2-0.2,1.9C105.6,26.4,104.7,26.8,103.6,26.8
		L103.6,26.8z"/>
	<path fill-rule="evenodd" clip-rule="evenodd" fill="#242956" d="M120.6,14.1c1.2-0.3,2.2,0.1,3.1,0.9c0.9,0.8,0.9,1.9,0.3,2.9
		c-0.6,1-1.7,1.5-2.7,0.8l0,0l0,0c-0.1-0.1-0.2-0.2-0.3-0.3c-0.4,0.2-1.3,1-1.5,1.3l0,0h-0.1c-0.1,0.1-0.2,0.3-0.3,0.4
		c0.1,1.2,0.3,2.3,0.6,3.4c0.1,0.4,0.2,0.9,0.4,1.3c0.1,0.2,0.5,1.1,0.8,1.1c0.5,0,1.4-1,1.6-1.4c0.5-0.6,1-1.5,1.4-2.3
		c0.5-1,1.6-1.4,2.6-0.9h0.1c1,0.6,1.1,1.7,0.5,2.7c-0.6,1.4-1.5,2.7-2.5,3.9c-1.1,1.2-2.4,2.3-4.1,2.3c-1.4,0-2.5-0.8-3.2-1.9
		c-0.6-1-1.1-2.2-1.4-3.2l0,0c0-0.1,0-0.2-0.1-0.2l-0.4,3.8c-0.2,1.1-1,1.8-2,1.8c-1.2,0-1.9-0.9-1.8-2l1.7-13.1
		c0.2-1.1,1.1-1.7,2.2-1.7c1.2,0,1.8,0.8,1.7,1.9l-0.2,1.2c0.1,0,0.1-0.1,0.1-0.1l0,0l0,0c0.5-0.4,0.9-0.9,1.4-1.2
		C119,14.8,119.7,14.2,120.6,14.1L120.6,14.1z"/>
	<path fill="#FFFFFF" d="M126.1,22.2c-0.4-0.3-1-0.2-1.3,0.4c-0.4,0.8-2.3,4.2-3.9,4.2c-1.1-0.1-1.8-1.9-2-3.1c-0.6-2.3-0.8-4-0.8-4
		c0.2-0.3,0.5-0.5,0.8-0.8c0.8-0.8,1.6-1.5,1.9-1.6c0.5-0.1,0.9,0.3,1.1,0.5c0.4,0.4,1,0.1,1.3-0.5c0.4-0.6,0.4-1.2-0.1-1.6
		c-0.3-0.3-1.1-1.1-2.3-0.8c-0.5,0.1-1.1,0.4-1.8,1.1c-0.6,0.4-1.2,1-1.3,1.1c-0.4,0.5-1.3,1.3-1.9,1.9l0.4-3.8c0.1-0.6-0.2-1-0.8-1
		c-0.6,0-1.1,0.3-1.2,1l-1.7,13.1c-0.1,0.6,0.3,1,0.9,1c0.5,0,1.1-0.3,1.1-1l0.9-6.1c0.1-0.1,0.4-0.4,1-0.9c0,0.8,0.2,2,0.5,3.3
		c0.3,1.2,0.8,2.2,1.3,2.9c0.6,1.1,1.5,1.6,2.5,1.6c1.2,0,2.3-0.6,3.4-2c1-1.2,1.7-2.5,2.4-3.7C126.7,23,126.6,22.4,126.1,22.2
		L126.1,22.2z"/>
	<path fill-rule="evenodd" clip-rule="evenodd" fill="#242956" d="M128.5,14.1c0.6-0.2,1.3-0.3,1.9-0.3c1.1,0.1,1.9,0.6,2.6,1.5
		c0.1-0.2,0.3-0.4,0.5-0.5c1.1-1,2.5-1.3,3.8-0.8c1.6,0.6,2.3,2.3,2.5,3.9c0.1,1.4,0,2.9-0.2,4.3c0,0.5-0.1,1.2-0.1,1.8
		c0,0.3-0.1,1.6,0.1,1.8c0,0,0.2,0.2,0.3,0.2l0,0c0.9-0.3,2-2.9,2.5-3.8c0.4-1.1,1.5-1.4,2.6-1v0.1c1,0.4,1.3,1.5,0.8,2.5
		c-0.4,1.1-1,2.2-1.5,3.1c-0.9,1.3-1.8,2.5-3.2,3c-0.4,0.2-1,0.3-1.4,0.3c-1,0-1.8-0.4-2.5-1.1c-1.1-0.9-1.5-2.3-1.5-3.7
		c-0.1-1.2,0.1-2.4,0.2-3.6l0,0c0.1-1.1,0.2-2.3,0.2-3.3c-0.1-0.1-0.1-0.6-0.2-0.6h-0.1l0,0l0,0h-0.1c-0.3,0.3-0.8,1.1-0.9,1.5
		c-0.4,1.1-0.8,2.4-0.9,3.6c0,0.3-0.1,0.6-0.1,1c-0.1,0.8-0.2,1.5-0.3,2.3c-0.1,0.6-0.1,1.4-0.2,2c-0.2,1.1-1,1.7-2,1.7l0,0h-0.1
		c-1.1-0.1-1.8-0.9-1.7-2c0.3-1.6,0.5-3.2,0.6-5c0.1-1.2,0.2-2.5,0.2-3.8c-0.1-0.3-0.1-1-0.3-1.2v-0.1l0,0c-0.1,0-0.1,0-0.1,0h-0.1
		c-0.1,0-0.3,0.2-0.4,0.3c-0.6,0.5-1.3,1.9-1.4,2.8l0,0c-0.3,2.5-0.6,4.8-1,7.2c-0.1,1.1-1,1.8-2,1.8l0,0h-0.1c-1.1,0-1.8-0.9-1.7-2
		c0.6-4.4,1.2-8.8,1.8-13.2c0.1-1.1,1-1.7,1.9-1.8C127.6,13.2,128.2,13.5,128.5,14.1L128.5,14.1z"/>
	<path fill="#FDED40" d="M144.6,22.2c-0.5-0.2-1.1-0.1-1.3,0.4c-0.5,1.2-1.7,3.8-3,4.3c-0.1,0-0.5,0.2-1.3-0.4
		c-0.6-0.5-0.4-2.5-0.2-4.4c0.1-1.4,0.3-2.8,0.2-4.1c-0.2-1.6-0.9-2.7-1.9-3.1c-1-0.4-1.9-0.2-2.9,0.5c-0.4,0.4-0.9,1-1.3,1.6
		c-0.1-0.4-0.3-0.8-0.4-1.1c-0.4-0.6-1.2-1.1-2-1.2c-0.9-0.1-1.8,0.2-2.7,1c0-0.2,0.1-0.4,0.1-0.6c0.1-0.6-0.3-1-0.9-1
		c-0.5,0-1.1,0.3-1.2,1c-0.4,3.8-1.7,13.1-1.7,13.2c-0.1,0.8,0.3,1.1,0.9,1.1c0.5,0,1.1-0.3,1.1-1.1c0.1,0,1-7.1,1.1-7.2
		c0-0.8,0.6-2.5,1.6-3.3c0.4-0.4,0.8-0.6,1.3-0.5c0.5,0,1.1,0.2,1.2,2.2c0.1,1.9-0.3,5.5-0.8,8.8c-0.1,0.8,0.3,1,0.9,1.1
		c0.5,0,1-0.3,1.1-1c0.3-1.9,0.8-5.3,0.6-5.3c0.2-1.4,0.5-2.8,1-3.8c0.3-0.9,0.8-1.5,1.2-1.9c0.3-0.2,0.6-0.2,1.1-0.1
		c0.3,0.1,0.6,0.4,0.8,1.4c0.1,1-0.1,2.3-0.2,3.4c-0.1,1.2-0.2,2.5-0.2,3.6c0.1,1.4,0.4,2.4,1.2,3c0.6,0.5,1.3,0.8,1.9,0.8
		c0.3,0,0.6,0,1-0.2c1-0.3,1.9-1.2,2.8-2.6c0.8-1.2,1.3-2.3,1.6-3C145.2,23,145,22.4,144.6,22.2L144.6,22.2z"/>
	<path fill-rule="evenodd" clip-rule="evenodd" fill="#242956" d="M159,21.8c0.5,0.6,0.6,1.4,0.3,2.2c-0.5,1.3-1.2,2.6-2,3.8l0,0
		c-0.4,0.6-1,1.3-1.7,1.8c-0.6,0.4-1.4,0.8-2.3,0.8c-0.1,0-0.3,0-0.5-0.1c-1.1-0.2-1.9-0.8-2.5-1.7c-0.4,0.4-0.9,0.8-1.3,1.1
		c-0.8,0.4-1.5,0.6-2.4,0.8l0,0l0,0h-0.1c-1.5,0-2.7-0.8-3.3-2c-0.4-0.9-0.6-1.7-0.8-2.7l0,0c-0.1-0.9-0.1-1.7-0.1-2.5
		c0.1-1.3,0.3-2.6,0.4-3.9c0.2-1.4,0.4-2.7,0.6-4.1l0,0l0,0c0.2-1.1,1.1-1.7,2.2-1.7c1.2,0.1,1.8,1.1,1.6,2.3
		c-0.2,1.2-0.4,2.5-0.5,3.8c-0.2,1-0.3,2-0.4,3.1c0,0.6-0.1,1.4,0,2c0,0.2,0.2,1.2,0.4,1.3c0,0.1,0.2,0.1,0.3,0.1l0,0
		c0.3,0,1-0.6,1.2-0.9V25c0.5-0.6,1-1.5,1.1-2.5c0.4-2.4,0.8-4.8,1.1-7.3c0.1-1.1,1-1.8,2-1.8c1.2,0,1.9,0.9,1.7,2
		c-0.2,2.2-0.5,4.2-0.9,6.4c0,0.6-0.1,1.2-0.1,1.8c0,0.3,0,2.3,0.5,2.3c0.2,0.1,0.8-0.6,0.9-0.8c0.5-0.9,1-1.8,1.4-2.8
		c0.4-1,1.5-1.4,2.6-1l0.6,0.2L159,21.8z"/>
	<path fill="#FDED40" d="M158,22.1c-0.4-0.2-1.1,0-1.3,0.6c-1,2-2,4.2-3.2,4.1c-1.6-0.2-1.4-3.3-1.2-5.2c0.3-2.2,0.9-6.2,0.9-6.4
		c0.1-0.6-0.3-1.1-0.9-1.1l0,0c-0.5,0-1.1,0.4-1.2,1.1c0,0.1-0.5,4.7-1,7.4c-0.2,1-0.6,2-1.4,2.9c-0.5,0.8-1.3,1.2-1.8,1.2
		c-1.1,0-1.4-0.8-1.6-2.2c-0.2-1.5,0.4-6.5,1-9.3c0.1-0.6-0.2-1.1-0.8-1.1c-0.5-0.1-1.1,0.2-1.2,1c0,0-0.3,1.8-0.6,4
		c-0.4,3-0.5,5.1-0.4,6.1c0.2,1.1,0.5,3.9,3.2,3.9h0.1c0.6,0,1.3-0.2,1.9-0.6c0.6-0.4,1.4-1.1,1.9-1.9c0.5,1.9,1.7,2.5,2.6,2.6
		c0.1,0,0.1,0,0.2,0c0.6,0,1.2-0.2,1.7-0.5c0.5-0.4,1.1-1,1.6-1.6c0.8-1.1,1.3-2.4,1.8-3.6c0.3-0.6,0.1-1.2-0.4-1.4V22.1z"/>
	<path fill-rule="evenodd" clip-rule="evenodd" fill="#242956" d="M164.1,14.1c1.2-0.3,2.2,0.1,3.1,0.9c0.9,0.8,0.9,1.9,0.3,2.9
		c-0.6,1-1.7,1.5-2.7,0.8l0,0l0,0c-0.1-0.1-0.2-0.2-0.3-0.3c-0.4,0.2-1.3,1-1.5,1.3l0,0h-0.1c-0.1,0.1-0.2,0.3-0.3,0.4
		c0.1,1.2,0.3,2.3,0.6,3.4c0.1,0.4,0.2,0.9,0.4,1.3c0.1,0.2,0.5,1.1,0.8,1.1c0.5,0,1.4-1,1.6-1.4c0.5-0.6,1-1.5,1.4-2.3
		c0.5-1,1.6-1.4,2.6-0.9h0.1c1,0.6,1.1,1.7,0.5,2.7c-0.6,1.4-1.5,2.7-2.5,3.9c-1.1,1.2-2.4,2.3-4.1,2.3c-1.4,0-2.5-0.8-3.2-1.9
		c-0.6-1-1.1-2.2-1.4-3.2l0,0c0-0.1,0-0.2,0-0.2l-0.5,3.8c-0.1,1.1-1,1.8-2,1.8c-1.2,0-1.9-0.9-1.8-2l1.7-13.1
		c0.2-1.1,1.1-1.7,2.2-1.7c1.2,0,1.8,0.8,1.7,1.9l-0.1,1.2v-0.1l0,0h0.1c0.4-0.4,0.8-0.9,1.3-1.2C162.5,14.8,163.2,14.2,164.1,14.1
		L164.1,14.1z"/>
	<path fill="#FDED40" d="M169.6,22.2c-0.4-0.3-1-0.2-1.3,0.4c-0.4,0.8-2.2,4.2-3.9,4.2c-1.1-0.1-1.8-1.9-2-3.1c-0.6-2.3-0.8-4-0.8-4
		c0.2-0.3,0.5-0.5,0.8-0.8c0.8-0.8,1.6-1.5,1.9-1.6c0.5-0.1,0.9,0.3,1.1,0.5c0.4,0.4,1,0.1,1.3-0.5c0.5-0.6,0.4-1.2-0.1-1.6
		c-0.3-0.3-1.1-1.1-2.3-0.8c-0.5,0.1-1.1,0.4-1.8,1.1c-0.6,0.4-1.2,1-1.3,1.1c-0.4,0.5-1.3,1.3-1.9,1.9l0.5-3.8c0-0.6-0.3-1-0.9-1
		c-0.6,0-1.1,0.3-1.2,1L156,28.4c-0.1,0.6,0.3,1,0.9,1c0.5,0,1.1-0.3,1.1-1l0.9-6.1c0.1-0.1,0.5-0.4,1-0.9c0.1,0.8,0.2,2,0.5,3.3
		c0.3,1.2,0.8,2.2,1.3,2.9c0.6,1.1,1.5,1.6,2.5,1.6c1.2,0,2.3-0.6,3.4-2c1-1.2,1.7-2.5,2.4-3.7C170.2,23,170.1,22.4,169.6,22.2
		L169.6,22.2z"/>
	<path fill-rule="evenodd" clip-rule="evenodd" fill="#242956" d="M174.5,29c-0.9,0.8-1.9,1.2-3.2,1.2c0,0,0,0-0.1,0
		c-1.3,0-2.4-0.6-3.1-1.7c-1.2-1.9-1-5-0.5-7.1c0.3-1.7,0.9-3.7,1.8-5.2c1-1.5,2.5-2.6,4.3-2.6c0.2,0,0.4,0.1,0.6,0.1
		c1.6,0.1,2.7,1.1,3.1,2.6c0.3,1.1,0.3,2.2,0.3,3.2v0.1l0,0c-0.1,0.8-0.2,1.4-0.3,2.2c-0.1,0.9-0.2,1.7-0.2,2.6v0.1
		c0,0.2,0.1,1.2,0.2,1.4c0,0,0,0,0.1,0c0.2,0,0.5-0.3,0.6-0.4c1-1,1.6-2.3,2.4-3.3c0.5-0.9,1.8-1.4,2.8-0.6l0.3,0.3v0.1
		c0.4,0.8,0.3,1.8-0.1,2.5c-0.9,1.5-1.7,3-3,4.2c-0.9,1-2,1.7-3.3,1.7c-0.8,0-1.3-0.2-1.8-0.5C175,29.5,174.7,29.3,174.5,29
		L174.5,29z M173.3,17.9c-0.3,0-0.4,0.1-0.8,0.3c-0.8,0.8-1.1,2.6-1.3,3.6c-0.1,1-0.4,3.2,0,4.1c0.1,0,0.2,0,0.3,0l0,0
		c0.1,0,0.2,0,0.4,0c0.2,0,0.4-0.4,0.5-0.6c0.5-1.1,0.8-2.5,1-3.7c0.1-0.5,0.2-1.2,0.3-1.7c0-0.4,0.1-1.4,0-1.8l0,0
		C173.8,17.9,173.4,17.9,173.3,17.9L173.3,17.9z"/>
	<path fill="#FDED40" d="M182.7,22.2c-0.4-0.4-1.1-0.1-1.4,0.4c-0.8,1.1-1.5,2.5-2.5,3.4s-1.5,0.8-1.9,0.5c-0.4-0.2-0.5-1.4-0.5-2.3
		s0.1-1.8,0.2-2.7c0.1-0.8,0.2-1.7,0.2-2.2c0.1-1.3,0.1-2.2-0.2-2.9c-0.3-1.2-1.1-1.9-2.4-2c-0.2,0-0.3,0-0.5,0
		c-1.4,0-2.6,0.8-3.6,2.2c-0.8,1.2-1.3,2.7-1.7,4.8c-0.4,2.9-0.3,5.1,0.4,6.4c0.5,0.9,1.4,1.4,2.4,1.4h0.1c1.4,0,2.5-0.6,3.3-1.9
		c0.3,0.8,0.6,1.3,1.2,1.5c0.3,0.2,0.9,0.4,1.4,0.4c0.8,0,1.6-0.3,2.7-1.4c1.3-1.3,2.2-2.7,2.9-4C183.1,23.3,183.1,22.5,182.7,22.2
		L182.7,22.2z M171.6,26.8c0,0,0,0-0.1,0c-0.4,0-0.8-0.2-1-0.5c-0.4-0.8-0.5-2.4-0.1-4.6c0.8-4.6,2.4-4.6,2.9-4.6
		c0.9,0,1.2,0.3,1.4,0.6c0.1,0.4,0.1,1.2,0,2.2c0,0.4-0.1,1.2-0.2,1.9C173.6,26.4,172.8,26.8,171.6,26.8L171.6,26.8z"/>
	<path fill-rule="evenodd" clip-rule="evenodd" fill="#FFFFFF" d="M45,9.1c1.9-0.8,3.7-1.2,6.1-0.6C50.5,9.5,47.5,9.6,45,9.1L45,9.1
		z"/>
	<path fill-rule="evenodd" clip-rule="evenodd" fill="#FFFFFF" d="M66.9,14.9c0,1.8,0,1.7-0.9,3.3C65.7,16.3,65.6,16.4,66.9,14.9
		L66.9,14.9z"/>
	<path fill-rule="evenodd" clip-rule="evenodd" fill="#FFFFFF" d="M53.9,15.9c1.5,0,0.8,4.4-1.3,4.4C53.6,18.8,54.4,17.6,53.9,15.9
		L53.9,15.9z"/>
	<path fill-rule="evenodd" clip-rule="evenodd" fill="#FFFFFF" d="M77.4,28.6c2.3-1.5,1.3-1.3,2.5-2.6c0.1-0.1,0.1-0.1,0.1-0.1
		C80.4,27.3,79.3,29,77.4,28.6L77.4,28.6z"/>
	<path fill-rule="evenodd" clip-rule="evenodd" fill="#FDF061" d="M127.9,17c0.4-1.5,1.4-2.3,2.5-1C129,16.2,129.2,16.3,127.9,17
		L127.9,17z"/>
	<path fill-rule="evenodd" clip-rule="evenodd" fill="#FDF061" d="M135.5,15.2c2.7,0.1,3.1,1.9,2.7,3.8
		C137.2,16.8,137.7,16.7,135.5,15.2L135.5,15.2z"/>
	<path fill-rule="evenodd" clip-rule="evenodd" fill="#FDF061" d="M132.2,25.5c0,1,0.3,3.4-1.2,3.7
		C131.3,27.7,131.3,26.9,132.2,25.5L132.2,25.5z"/>
	<path fill-rule="evenodd" clip-rule="evenodd" fill="#FDF061" d="M152.1,14.5c1.1,0,1,1.4,0.3,2.3C152.1,16,152.1,15.2,152.1,14.5
		L152.1,14.5z"/>
	<path fill-rule="evenodd" clip-rule="evenodd" fill="#FDF061" d="M164.5,16l1.1,0.3l0.4,1.1C164.6,16.8,165.1,17.4,164.5,16
		L164.5,16z"/>
	<path fill-rule="evenodd" clip-rule="evenodd" fill="#FDF061" d="M168.7,23.8c0.5,1.7,0.8,2.9,1.5,4.4c-0.1,0.1-0.1,0.1-0.2,0.1
		C168.3,27.9,168.5,25,168.7,23.8L168.7,23.8z"/>
	<path fill-rule="evenodd" clip-rule="evenodd" fill="#FDF061" d="M182.5,22.8c0,1.4-0.1,1.8-1.5,2.6
		C181.2,24.1,181.5,23.8,182.5,22.8L182.5,22.8z"/>
	<path fill-rule="evenodd" clip-rule="evenodd" fill="#FFFFFF" d="M107.8,18.9c-0.2-2.7-0.4-1.7-1.1-3.4c0-0.1,0,0,0.1-0.1
		C108.2,15.6,109.1,17.5,107.8,18.9L107.8,18.9z"/>
	<path fill="#242956" d="M22.8,12.5c-0.5-0.3-0.6-0.9-0.4-1.3l1.1-2.1c0.1-0.1,0.1-0.2,0-0.3l-1.1-2.1c-0.2-0.3-0.2-0.8,0.1-1.1
		c0.2-0.3,0.6-0.5,1-0.4l2.3,0.4c0.1,0,0.2,0,0.3-0.1l1.6-1.7c0.3-0.3,0.8-0.4,1.2-0.2c0.3,0.2,0.4,0.4,0.5,0.7l0.4,2.3
		c0,0.1,0.1,0.2,0.2,0.3c0,0,0,0,0,0l2.1,1c0,0,0,0,0.1,0c0.3,0.2,0.5,0.5,0.5,0.9c0,0.4-0.2,0.7-0.6,0.9l-2.1,1.1
		c-0.1,0.1-0.2,0.2-0.2,0.3l-0.3,2.3c0,0.3-0.2,0.6-0.6,0.8c-0.3,0.2-0.7,0.1-1,0c-0.1,0-0.2-0.1-0.2-0.2l-1.7-1.7c0,0,0,0-0.1-0.1
		c-0.1,0-0.2-0.1-0.2,0l-2.3,0.4C23.3,12.7,23,12.6,22.8,12.5z"/>
	<path fill="#FDF061" d="M28.6,4.6L29,7.2c0,0.1,0,0.1,0.1,0.1l2.4,1.2c0.1,0.1,0.1,0.3,0,0.3l-2.4,1.2c-0.1,0-0.1,0.1-0.1,0.1
		l-0.4,2.7c0,0.1-0.2,0.2-0.3,0.1l-1.9-1.9c0,0-0.1-0.1-0.2-0.1l-2.7,0.5c-0.1,0-0.3-0.1-0.2-0.3l1.2-2.4c0-0.1,0-0.1,0-0.2
		l-1.3-2.4c-0.1-0.1,0-0.3,0.2-0.3l2.7,0.4c0.1,0,0.1,0,0.2-0.1l1.9-2C28.4,4.4,28.6,4.4,28.6,4.6z"/>
	<path fill="#242956" d="M4,15.5c-0.3,0-0.5-0.2-0.5-0.5l0-1.3c0-0.1,0-0.1-0.1-0.2l-1.1-0.7c-0.2-0.1-0.3-0.3-0.2-0.5
		c0-0.2,0.2-0.4,0.4-0.4l1.2-0.4c0.1,0,0.1-0.1,0.1-0.1L4.1,10c0.1-0.2,0.3-0.4,0.5-0.4c0.2,0,0.3,0.1,0.4,0.2l0.8,0.5
		c0,0,0.1-0.5,0.1-0.5c0,0,0,0,0,0h1.3c0,0,0,0,0,0c0.2,0,0.4,0.6,0.5,0.8c0.1,0.2,0.1,0.7,0,0.8L7,12.7c0,0.1,0,0.2,0,0.2l0.4,1.2
		c0.1,0.2,0,0.4-0.1,0.5c-0.1,0.1-0.3,0.2-0.5,0.2c0,0-0.1,0-0.1,0l-1.2-0.4c0,0,0,0-0.1,0c0,0-0.1,0-0.1,0l-1,0.8
		C4.3,15.4,4.1,15.5,4,15.5z"/>
	<path fill="#FDF061" d="M4.8,10.4l0.8,1.1c0,0,0.1,0,0.1,0L7,11.4c0.1,0,0.1,0.1,0.1,0.2l-0.8,1.1c0,0,0,0.1,0,0.1l0.5,1.3
		c0,0.1,0,0.2-0.1,0.1l-1.3-0.4c0,0-0.1,0-0.1,0l-1.1,0.8c-0.1,0.1-0.2,0-0.2-0.1l0-1.3c0,0,0-0.1,0-0.1l-1.1-0.7
		c-0.1-0.1-0.1-0.2,0-0.2l1.3-0.4c0,0,0.1,0,0.1-0.1l0.4-1.3C4.6,10.3,4.7,10.3,4.8,10.4z"/>
	<path fill-rule="evenodd" clip-rule="evenodd" fill="#2C0359" d="M36,32.2"/>
	<path fill-rule="evenodd" clip-rule="evenodd" fill="#2C0359" d="M0.2,32.8"/>
	<path fill-rule="evenodd" clip-rule="evenodd" fill="#242956" d="M16.6,0.6c1,4.5,1.9,8.8,2.8,13.3c0.1,0.5,0.2,0.7-0.3,0.7
		c-2.4,0.4-4,0.7-6.4,1c-0.5,0.1-0.4-0.1-0.5-0.6c-0.5-4.6-1-8.9-1.5-13.5C10.6,0.2,16.3-0.6,16.6,0.6L16.6,0.6z"/>
	<path fill-rule="evenodd" clip-rule="evenodd" fill="#D4D7FD" d="M17.1,13.6L17.1,13.6c-0.4,0.1-0.8-0.2-0.9-0.6L14.5,2.8
		c-0.1-0.4,0.2-0.8,0.6-0.9l0,0c0.4-0.1,0.8,0.2,0.9,0.6l1.7,10.2C17.7,13.2,17.5,13.6,17.1,13.6z"/>
	<path fill-rule="evenodd" clip-rule="evenodd" fill="#FCFCFC" d="M20.5,17.8c1.6,1.1,3.8,2.7,4.2,4.7c0.1,0.1,0.1,0.2,0,0.3
		c-0.2,0-0.4-0.1-0.7-0.2l0,0.1c0-0.1,0-0.1,0-0.1c-0.8-0.3-0.8-0.6-1.6-1.2c0.3,0.4,0.5,0.6,0.5,0.7c-0.1,0.9-1.9,0.1-2.7-0.1
		c0.9,0.4,1.8,0.9,2.4,1.4c-0.6-0.1-3.7-1.2-4-1.7c-0.6-0.9,1-0.7,2.3-0.4c-0.9-0.8-2.1-1.7-2-2.3c0.2-1.6,2.6,0.3,4.1,1.7
		C22.3,19.7,21.5,19.1,20.5,17.8L20.5,17.8z"/>
	<path fill-rule="evenodd" clip-rule="evenodd" fill="#FCFCFC" d="M9.6,25.5c0.6,2.1,1.8,4.1,3.4,5.6c0.8,0.8,1.2,1,2.3,1.5
		c-2,0-3.9-2.1-4.9-3.8C9.7,27.5,9.6,27,9.6,25.5L9.6,25.5z"/>
	<path opacity="0.6" fill-rule="evenodd" clip-rule="evenodd" fill="#7854D9" d="M15.7,24.9c-0.5,1.7-0.3,3.5,0.6,3.7
		c0.7,0.2,2.7-0.3,3.9-0.8c0.8-0.3,0-2.1-1.1-3.5c-2-3-1.6-4.6-2.3-8.6l-1.6,0.2C15.8,20,16.7,21.3,15.7,24.9L15.7,24.9z"/>
	<path fill-rule="evenodd" clip-rule="evenodd" fill="#242956" d="M8.3,29.9c-5,0-8-0.8-8.3-2.2c-0.3-1.6,2.7-3.6,8.2-5.3
		c0,0,0,0,0.1,0c0,0,0.1,0,0.1,0.1c0,0,0.1,0.1,0.1,0.2c-0.1,0.3-0.1,0.6-0.2,0.9c0,0.1-0.1,0.1-0.1,0.2c-1.1,0.4-2.1,0.7-2.9,1.1
		c-3.3,1.4-4,2.5-3.9,2.7c0.1,0.4,1.9,1.4,7,1.4c1,0,2.2,0,3.3-0.1c2.1-0.1,4.4-0.4,6.7-0.8c4.6-0.8,8.8-1.9,11.8-3.2
		c3.3-1.4,3.9-2.5,3.9-2.7c-0.1-0.4-1.9-0.8-7-0.8c-0.4,0-0.8,0.6-1.2,0.6c0,0,0,0,0,0c-0.1,0-0.1-0.7-0.2-0.7
		c-0.1-0.3-0.2-0.8-0.4-1c0-0.1-0.1-0.3,0-0.3c0-0.1,0.1-0.2,0.2-0.2c0.6,0,1.1-0.1,1.7-0.1c5,0,8,0.8,8.3,2.3
		c0.1,0.4,0,0.8-0.3,1.2c-1.5,2.2-8.3,4.7-16.5,6C14.9,29.6,11.4,29.9,8.3,29.9C8.3,29.9,8.3,29.9,8.3,29.9z"/>
	<path fill="#242956" d="M17.9,30c-0.2-0.2-0.3-0.5-0.1-0.8l0.8-1c0-0.1,0-0.1,0-0.2l-0.4-1.2c-0.1-0.2,0-0.4,0.1-0.6
		c0.1-0.2,0.4-0.2,0.6-0.1l1.2,0.4c0.1,0,0.1,0,0.2,0l1-0.8c0.2-0.2-0.1-0.2,0.1,0c0.1,0.1-0.4,0.3-0.4,0.4v1.3
		c0,0.1,0.6,0.1,0.7,0.2c0,0,0.3,0,0.3,0l1.2,0.7c0,0,0.1,0,0.1,0c0.2,0.1,0.3,0.3,0.2,0.5c0,0.2-0.2,0.4-0.4,0.4l-1.2,0.4
		c-0.1,0-0.1,0.1-0.1,0.1L21.5,31c-0.1,0.2-0.2,0.3-0.4,0.4c-0.2,0.1-0.4,0-0.5-0.1c0,0-0.1-0.1-0.1-0.1l-0.8-1c0,0,0,0,0,0
		c0,0-0.1,0-0.1,0l-1.3,0C18.2,30.1,18,30.1,17.9,30z"/>
	<path fill="#FDF061" d="M21.7,26.3l0,1.3c0,0.1,0,0.1,0.1,0.1l1.1,0.7c0.1,0.1,0.1,0.2,0,0.3l-1.2,0.4c0,0-0.1,0.1-0.1,0.1
		l-0.4,1.3c0,0.1-0.2,0.1-0.3,0L20,29.5c0,0-0.1-0.1-0.1-0.1l-1.3,0c-0.1,0-0.2-0.1-0.1-0.2l0.8-1.1c0,0,0-0.1,0-0.1l-0.4-1.2
		c0-0.1,0.1-0.2,0.2-0.2l1.2,0.4c0,0,0.1,0,0.1,0l1-0.8C21.5,26.1,21.7,26.2,21.7,26.3z"/>
	<g>
		<path fill-rule="evenodd" clip-rule="evenodd" fill="#242956" d="M181,8.8c-1.5,0-2.7,1.2-2.7,2.7c0,1.5,1.2,2.7,2.7,2.7
			c1.5,0,2.7-1.2,2.7-2.7C183.8,10,182.5,8.8,181,8.8z M181,13.7c-1.2,0-2.2-1-2.2-2.2s1-2.2,2.2-2.2c1.2,0,2.2,1,2.2,2.2
			S182.2,13.7,181,13.7z"/>
		<g>
			<path fill="#242956" d="M182,12.9c-0.1,0.1-0.5,0.2-0.9,0.2c-0.9,0-1.6-0.6-1.6-1.6c0-1,0.7-1.7,1.7-1.7c0.3,0,0.6,0.1,0.8,0.2
				l-0.1,0.4c-0.1-0.1-0.3-0.1-0.7-0.1c-0.7,0-1.1,0.5-1.1,1.2c0,0.7,0.5,1.2,1.1,1.2c0.3,0,0.5-0.1,0.7-0.1L182,12.9z"/>
		</g>
	</g>
	<path fill="#FFFFFF" d="M15.1,2.4c0,0,0.1,0.2,0.2,0.4c0.1,0.3,0.2,0.7,0.4,1.2c0.1,0.5,0.3,1.1,0.4,1.7c0.1,0.3,0.1,0.6,0.2,1
		c0.1,0.3,0.1,0.7,0.2,1c0,0.3,0.1,0.7,0.1,1c0,0.3,0.1,0.7,0.1,1c0.1,0.6,0.1,1.2,0.1,1.7c0,0.5,0,0.9,0,1.2c0,0.3,0,0.5,0,0.5
		s-0.1-0.2-0.2-0.4c-0.1-0.3-0.2-0.7-0.4-1.2c-0.1-0.5-0.3-1.1-0.4-1.7c-0.1-0.3-0.1-0.6-0.2-1c-0.1-0.3-0.1-0.7-0.2-1
		c0-0.3-0.1-0.7-0.1-1c0-0.3-0.1-0.7-0.1-1c-0.1-0.6-0.1-1.2-0.1-1.7c0-0.5,0-0.9,0-1.2C15.1,2.6,15.1,2.4,15.1,2.4z"/>
	<path fill="#FFFFFF" d="M27.1,6.7c-0.2,0.2-0.7,0.6-1,0.6c-0.2,0-0.7-0.4-0.9-0.5c-0.5-0.3-1,0.5-0.5,0.8C25,7.8,25.3,8,25.6,8.2
		c0,0.3-0.2,0.5-0.5,0.7c-0.2,0.1-0.3,0.4-0.2,0.6c0.1,0.2,0.4,0.3,0.6,0.2c0.6-0.3,0.9-0.8,1-1.4C27,8,27.5,7.7,27.8,7.4
		C28.3,7,27.6,6.3,27.1,6.7z"/>
	<path fill="#FFFFFF" d="M21.3,27.4c0-0.1,0-0.1,0-0.1c0-0.1,0-0.2-0.1-0.3c-0.2-0.1-0.3,0-0.5,0.1c-0.1,0.1-0.3,0.2-0.4,0.3
		c0,0,0,0,0,0c0,0,0,0,0,0c-0.2,0.1-0.3,0.3-0.2,0.4c0.1,0.2,0.2,0.2,0.4,0.2c0,0,0,0,0.1,0c0,0,0,0,0,0c0,0,0,0,0,0
		c0.1,0.2,0.3,0.3,0.5,0.2C21.2,28.2,21.3,27.7,21.3,27.4z"/>
	<path fill="#FFFFFF" d="M5.1,12.1C5.1,12.1,5.1,12.1,5.1,12.1C4.9,12,4.7,12,4.4,12c-0.2,0.1-0.4,0.1-0.6,0.2
		c-0.2,0.1-0.2,0.2,0,0.3c0.1,0.2,0.5,0.4,0.8,0.5c0.2,0.1,0.5,0,0.6-0.1c0,0,0.1-0.1,0.1-0.1c0,0,0,0,0-0.1c0-0.2,0.1-0.3,0.1-0.5
		C5.5,12.2,5.3,12.2,5.1,12.1z"/>
	<path fill="#FFFFFF" d="M15,16.6c-0.6,0.1-1.1,0.2-1.7,0.4c-0.5,0.2-0.8,1.9-0.3,1.7c0.6-0.2,1.2-0.4,1.7-0.4
		C15.2,18.2,15.4,16.5,15,16.6z"/>
</g>
</svg>
